HIERARCHY
ROOT Hips
{
	OFFSET 0.000000 0.000000 0.000000 
	CHANNELS 6 Xposition Yposition Zposition Zrotation Yrotation Xrotation
	JOINT LeftUpLeg
	{
		OFFSET 1.363060 -1.794630 0.839290 
		CHANNELS 3 Zrotation Yrotation Xrotation
		JOINT LeftLeg
		{
			OFFSET 2.448110 -6.726130 0.000000 
			CHANNELS 3 Zrotation Yrotation Xrotation
			JOINT LeftFoot
			{
				OFFSET 2.562200 -7.039590 0.000000 
				CHANNELS 3 Zrotation Yrotation Xrotation
				JOINT LeftToeBase
				{
					OFFSET 0.157640 -0.433110 2.322550 
					CHANNELS 3 Zrotation Yrotation Xrotation
					End Site
					{
						OFFSET 0.000000 0.000000 0.000000 
					}
				}
			}
		}
	}
	JOINT RightUpLeg
	{
		OFFSET -1.305520 -1.794630 0.839290 
		CHANNELS 3 Zrotation Yrotation Xrotation
		JOINT RightLeg
		{
			OFFSET -2.542530 -6.985550 0.000000 
			CHANNELS 3 Zrotation Yrotation Xrotation
			JOINT RightFoot
			{
				OFFSET -2.568260 -7.056230 0.000000 
				CHANNELS 3 Zrotation Yrotation Xrotation
				JOINT RightToeBase
				{
					OFFSET -0.164730 -0.452590 2.363150 
					CHANNELS 3 Zrotation Yrotation Xrotation
					End Site
					{
						OFFSET 0.000000 0.000000 0.000000 
					}
				}
			}
		}
	}
	JOINT Spine
	{
		OFFSET 0.028270 2.035590 -0.193380 
		CHANNELS 3 Zrotation Yrotation Xrotation
		JOINT Spine1
		{
			OFFSET 0.056720 2.048850 -0.042750 
			CHANNELS 3 Zrotation Yrotation Xrotation
			JOINT Neck1
			{
				OFFSET -0.054170 1.746240 0.172020 
				CHANNELS 3 Zrotation Yrotation Xrotation
				JOINT Head
				{
					OFFSET 0.104070 1.761360 -0.123970 
					CHANNELS 3 Zrotation Yrotation Xrotation
					End Site
					{
						OFFSET 0.000000 0.000000 0.000000 
					}
				}
			}
			JOINT LeftArm
			{
				OFFSET 3.362410 1.200890 -0.311210 
				CHANNELS 3 Zrotation Yrotation Xrotation
				JOINT LeftForeArm
				{
					OFFSET 4.983000 -0.000000 -0.000000 
					CHANNELS 3 Zrotation Yrotation Xrotation
					JOINT LeftHand
					{
						OFFSET 3.483560 -0.000000 -0.000000 
						CHANNELS 3 Zrotation Yrotation Xrotation
						JOINT LeftHandIndex1
						{
							OFFSET 0.715260 -0.000000 -0.000000 
							CHANNELS 3 Zrotation Yrotation Xrotation
							End Site
							{
								OFFSET 0.000000 0.000000 0.000000 
							}
						}
					}
				}
			}
			JOINT RightArm
			{
				OFFSET -3.136600 1.374050 -0.404650 
				CHANNELS 3 Zrotation Yrotation Xrotation
				JOINT RightForeArm
				{
					OFFSET -5.241900 -0.000000 -0.000000 
					CHANNELS 3 Zrotation Yrotation Xrotation
					JOINT RightHand
					{
						OFFSET -3.444170 -0.000000 -0.000000 
						CHANNELS 3 Zrotation Yrotation Xrotation
						JOINT RightHandIndex1
						{
							OFFSET -0.622530 -0.000000 -0.000000 
							CHANNELS 3 Zrotation Yrotation Xrotation
							End Site
							{
								OFFSET 0.000000 0.000000 0.000000 
							}
						}
					}
				}
			}
		}
	}
}
MOTION
Frames: 18
Frame Time: 0.041667
46.010100 16.796000 2.781000 8.475100 -18.523900 -4.719800 -24.664600 14.412100 17.129400 2.811400 10.383300 30.227000 -0.109200 6.010400 -0.723400 0.143300 -2.439800 -6.722900 17.071700 -14.341400 -11.272000 -0.300700 -3.526100 9.747000 -0.411100 1.408900 -11.703400 -3.316000 -11.189900 32.922900 2.051000 -4.972500 -0.900300 7.632100 -2.340300 -2.222500 -1.024200 -1.845500 16.930300 -1.136200 -0.774700 9.665800 -87.416100 1.902300 59.715400 23.813300 -34.966200 -7.599300 0.000000 0.000000 -5.051900 -7.125000 0.000000 0.000000 84.437900 -21.654100 15.669100 -23.019500 34.110100 -7.149200 0.000000 0.000000 -4.522500 7.125000 0.000000 0.000000 
45.968000 16.799800 2.893700 7.761000 -18.586700 -4.818400 -23.409300 14.479800 16.773100 3.085800 10.832600 31.717500 -0.084100 6.168800 1.390600 0.068400 -1.686900 -4.641200 17.842400 -13.547400 -9.518500 -0.241000 -3.159000 8.721800 -0.440800 0.603900 -12.345400 -3.134300 -10.909400 31.975000 2.171200 -5.005300 -0.851300 7.309700 -2.359400 -2.425700 -0.862800 -1.824600 17.089100 -1.038500 -0.759500 9.728000 -87.464400 2.468100 59.586500 23.676400 -34.820200 -7.521000 0.000000 0.000000 -4.966100 -7.125000 0.000000 0.000000 84.359000 -21.586600 16.384500 -23.366700 34.487400 -7.344900 0.000000 0.000000 -4.447600 7.125000 0.000000 0.000000 
45.906800 16.793000 2.999700 7.009400 -19.208300 -4.754800 -21.926400 14.990000 16.148100 3.374600 11.278100 33.223600 -0.045300 6.348700 3.125400 0.012800 -0.729200 -2.003900 18.755600 -14.033100 -9.153600 -0.253500 -3.239500 8.946200 -0.460000 1.726700 -12.329800 -2.878900 -10.496400 30.599800 2.363200 -4.780000 -0.807600 7.136100 -2.253000 -2.515500 -0.730300 -1.884300 17.275200 -0.958000 -0.787500 9.805900 -87.469100 2.962600 59.397100 23.453900 -34.581500 -7.394300 0.000000 0.000000 -4.981600 -7.125000 0.000000 0.000000 84.228400 -21.517200 17.354300 -23.592800 34.730700 -7.473300 0.000000 0.000000 -4.321300 7.125000 0.000000 0.000000 
45.858900 16.796100 3.107200 6.541500 -19.530700 -4.882700 -20.960900 15.113700 15.661000 3.678700 11.720100 34.748900 -0.004800 6.763500 4.618700 0.001000 0.200500 0.551000 19.186500 -14.300000 -8.296200 -0.240900 -3.158700 8.720900 -0.467900 2.131500 -12.361200 -3.064900 -10.799300 31.606000 2.430600 -4.603300 -0.751300 6.924500 -2.166800 -2.667500 -1.378000 -2.055700 17.083600 -1.336800 -0.895900 9.668800 -86.946200 3.675700 60.117300 23.850200 -35.005500 -7.620500 0.000000 0.000000 -5.619800 -7.125000 0.000000 0.000000 84.194200 -21.401900 18.137300 -23.951200 35.112700 -7.678500 0.000000 0.000000 -5.295400 7.125000 0.000000 0.000000 
45.816000 16.795200 3.211800 6.009300 -19.618300 -4.773400 -20.051200 14.888500 14.953400 4.006200 12.168700 36.331400 0.059200 7.073600 6.248100 0.011200 0.682900 1.876600 19.800500 -13.915800 -7.297900 -0.211400 -2.960000 8.167400 -0.482500 1.690400 -12.645300 -3.635500 -11.658900 34.535800 2.502200 -4.491000 -0.725800 6.642300 -2.118200 -2.730100 -1.302800 -2.176500 16.973100 -1.284800 -0.961600 9.607600 -86.889700 4.105600 60.210700 23.711500 -34.857700 -7.541000 0.000000 0.000000 -5.478100 -7.125000 0.000000 0.000000 84.242600 -21.256800 18.637700 -24.305900 35.486000 -7.883400 0.000000 0.000000 -5.650300 7.125000 0.000000 0.000000 
45.794800 16.788400 3.309700 5.409300 -19.806200 -4.434300 -19.357200 14.508300 13.923200 4.353900 12.617000 37.951300 0.112100 7.587700 7.498900 0.058300 1.558400 4.286600 20.259100 -15.187700 -7.716400 -0.233900 -3.112900 8.593300 -0.458200 2.940300 -12.114900 -3.854400 -11.964100 35.605200 2.533800 -4.392300 -0.756500 6.111300 -2.079900 -2.820800 -0.882400 -2.322400 16.944300 -1.073800 -1.013100 9.600300 -87.107100 4.414900 59.662700 23.290900 -34.405400 -7.302000 0.000000 0.000000 -5.095100 -7.125000 0.000000 0.000000 84.186300 -21.012900 18.970300 -24.667700 35.862400 -8.094400 0.000000 0.000000 -4.554200 7.125000 0.000000 0.000000 
45.724100 16.794500 3.406400 4.981300 -20.446500 -4.558000 -18.266500 14.882200 13.350400 4.645000 12.972500 39.265700 0.174100 7.958000 8.679300 0.109700 2.135700 5.880900 20.961100 -14.278100 -6.157700 -0.192900 -2.828500 7.801500 -0.494400 2.460400 -12.663600 -3.449800 -11.389800 33.606200 2.600800 -4.055300 -0.648700 6.043700 -1.916700 -2.842800 -0.583100 -2.532500 16.871400 -0.960400 -1.090600 9.547700 -87.078800 4.870100 59.270900 23.081500 -34.177800 -7.184000 0.000000 0.000000 -4.923300 -7.125000 0.000000 0.000000 84.247600 -20.925300 19.612400 -25.020900 36.225400 -8.302300 0.000000 0.000000 -4.899700 7.125000 0.000000 0.000000 
45.693100 16.795500 3.513400 4.465100 -20.680100 -4.519100 -17.594100 14.606400 12.601200 4.978500 13.359500 40.729600 0.185300 8.395700 9.032400 0.081000 1.835700 5.051800 21.367600 -14.599000 -5.606300 -0.190200 -2.808800 7.746800 -0.508200 2.956200 -12.778300 -3.117100 -10.882200 31.883700 2.653300 -3.889500 -0.629100 5.668000 -1.842500 -2.951900 -1.068200 -2.668100 16.568600 -1.249700 -1.173400 9.349700 -87.125600 5.330400 58.953100 22.932500 -34.014900 -7.100500 0.000000 0.000000 -4.692300 -7.125000 0.000000 0.000000 84.252100 -20.836800 19.961900 -25.358600 36.568300 -8.502600 0.000000 0.000000 -4.768200 7.125000 0.000000 0.000000 
45.639100 16.797300 3.612200 3.947400 -21.404300 -4.518600 -16.742000 14.726400 11.934700 5.308600 13.723100 42.139500 0.141100 8.653600 8.481000 0.064000 1.631700 4.488900 21.892100 -14.886000 -5.077500 -0.194400 -2.839400 7.832000 -0.505600 3.877800 -12.668600 -3.073600 -10.813200 31.652500 2.829700 -3.568100 -0.541200 5.622200 -1.689300 -2.952000 -0.903600 -2.742800 16.661700 -1.140300 -1.213300 9.378900 -87.296300 5.684700 58.382900 22.671800 -33.728000 -6.955200 0.000000 0.000000 -4.425900 -7.125000 0.000000 0.000000 84.053000 -20.552200 20.361900 -25.648100 36.859100 -8.675700 0.000000 0.000000 -4.071100 7.125000 0.000000 0.000000 
45.594700 16.798100 3.711300 3.439700 -21.791300 -4.427100 -16.006000 14.572900 11.155900 5.645100 14.075400 43.540400 0.105100 8.343900 7.753700 0.023300 0.986500 2.711600 22.196100 -16.107800 -5.063200 -0.211300 -2.959600 8.166300 -0.476900 5.404300 -12.318900 -2.970600 -10.647300 31.099500 2.903400 -3.410900 -0.496500 5.363200 -1.620400 -2.966600 -0.728500 -2.841500 16.923000 -1.050900 -1.253800 9.486600 -87.390400 6.060700 57.548000 22.353500 -33.374200 -6.779300 0.000000 0.000000 -4.051500 -7.125000 0.000000 0.000000 83.881400 -20.331600 21.138300 -26.071800 37.279500 -8.931100 0.000000 0.000000 -5.015100 7.125000 0.000000 0.000000 
45.545000 16.800100 3.801100 3.040200 -22.227800 -4.416000 -15.107600 14.830800 10.184600 5.989400 14.418100 44.939400 0.105600 7.322600 7.258000 0.002000 -0.292300 -0.803000 22.665400 -16.057000 -4.264600 -0.196200 -2.852300 7.867700 -0.487500 5.665800 -12.470400 -2.922000 -10.567600 30.835200 2.961900 -3.198900 -0.462300 5.183500 -1.518700 -3.070600 -0.880000 -2.921400 16.945600 -1.123100 -1.306200 9.475800 -87.530600 6.427900 56.541600 22.006200 -32.984000 -6.589200 0.000000 0.000000 -3.506400 -7.125000 0.000000 0.000000 83.721600 -20.104400 21.556500 -26.632000 37.826000 -9.272500 0.000000 0.000000 -5.674200 7.125000 0.000000 0.000000 
45.496600 16.801700 3.883500 2.715400 -22.617200 -4.369000 -14.336700 14.995000 9.069400 6.337800 14.747900 46.323000 0.075200 6.416000 6.236200 0.016800 -0.836500 -2.299200 23.199600 -15.476200 -3.148600 -0.162200 -2.594500 7.151700 -0.516400 5.208000 -12.800400 -2.888100 -10.511700 30.650100 2.987700 -2.970400 -0.474000 5.018600 -1.405300 -3.238800 -0.508800 -3.131100 17.074600 -0.937600 -1.393700 9.524300 -87.601600 6.779800 55.646800 21.694200 -32.629700 -6.420200 0.000000 0.000000 -3.075800 -7.125000 0.000000 0.000000 83.669200 -19.915300 22.228400 -26.984100 38.164100 -9.489300 0.000000 0.000000 -7.182600 7.125000 0.000000 0.000000 
45.450500 16.806400 3.970500 2.335400 -23.000500 -4.259400 -13.746800 14.797000 8.055000 6.657900 15.037000 47.568400 0.023400 5.830700 4.723800 0.000600 -0.157900 -0.434000 22.591500 -19.869200 -5.015200 -0.261000 -3.286900 9.078500 -0.297700 9.753400 -11.093100 -2.802800 -10.368800 30.179500 2.975400 -2.700700 -0.514500 4.747500 -1.274000 -3.393000 -0.668700 -3.379700 16.958900 -1.082700 -1.507000 9.408700 -87.586600 7.183100 54.834800 21.398900 -32.291000 -6.261700 0.000000 0.000000 -2.672500 -7.125000 0.000000 0.000000 83.702400 -19.763700 22.669900 -27.265000 38.430800 -9.663400 0.000000 0.000000 -7.357200 7.125000 0.000000 0.000000 
45.403200 16.810600 4.057600 1.993900 -23.393700 -4.155900 -13.226900 14.487400 7.070800 6.963200 15.300900 48.735200 -0.013800 5.404200 3.341000 0.026300 1.047100 2.878400 22.945800 -19.481700 -4.565100 -0.277500 -3.388400 9.361900 -0.330100 10.084600 -11.610700 -2.839000 -10.429800 30.380000 2.981600 -2.468500 -0.533800 4.532800 -1.162700 -3.478300 -0.765000 -3.368900 16.783000 -1.160700 -1.494900 9.262000 -87.627800 7.560500 53.852200 21.080500 -31.922100 -6.092400 0.000000 0.000000 -2.292600 -7.125000 0.000000 0.000000 83.551000 -19.478700 23.247000 -27.454600 38.609300 -9.781500 0.000000 0.000000 -7.215400 7.125000 0.000000 0.000000 
45.355400 16.815600 4.145400 1.771400 -23.865800 -4.219000 -12.753000 14.420600 6.170000 7.203900 15.501200 49.641100 -0.029100 4.983800 2.403100 0.008900 0.609000 1.673500 24.019300 -15.887300 -1.470400 -0.154200 -2.530300 6.973700 -0.536400 6.726100 -13.166200 -2.837000 -10.426400 30.368700 3.006400 -2.249900 -0.465100 4.425100 -1.058400 -3.488400 -0.459800 -3.402300 16.538800 -1.006400 -1.497300 9.118100 -87.763100 7.822800 52.615400 20.700600 -31.477100 -5.892800 0.000000 0.000000 -1.898100 -7.125000 0.000000 0.000000 83.249500 -19.077900 23.885100 -27.620500 38.764500 -9.885100 0.000000 0.000000 -6.968800 7.125000 0.000000 0.000000 
45.306700 16.819700 4.232300 1.462700 -24.350800 -4.235700 -12.210800 14.315200 5.262200 7.395200 15.655900 50.353700 -0.042700 4.707500 1.432300 0.002300 -0.306500 -0.842200 24.515900 -15.441000 -0.319100 -0.124100 -2.271200 6.255700 -0.572400 5.959800 -13.506100 -2.391900 -9.638600 27.814000 3.061200 -1.980100 -0.399200 4.317600 -0.929100 -3.503000 -0.524200 -3.776600 17.144900 -1.070900 -1.680200 9.390300 -87.897300 8.041900 51.394700 20.283900 -30.982900 -5.676800 0.000000 0.000000 -1.423700 -7.125000 0.000000 0.000000 83.013900 -18.696000 24.212200 -27.809300 38.940100 -10.003600 0.000000 0.000000 -6.546500 7.125000 0.000000 0.000000 
45.254600 16.819900 4.309600 1.118600 -24.702500 -4.074500 -11.724600 13.773900 4.205400 7.623200 15.835000 51.193900 -0.055700 4.548800 0.249400 0.004500 0.431700 1.186300 24.656800 -16.629300 -0.511200 -0.138900 -2.402200 6.618600 -0.534000 7.151300 -13.197800 -2.044700 -8.958500 25.665600 3.089700 -1.774300 -0.429600 4.177900 -0.829600 -3.586900 0.149000 -4.092500 17.605300 -0.740500 -1.802500 9.612400 -87.924800 8.334600 50.238900 19.947300 -30.578800 -5.504500 0.000000 0.000000 -1.175300 -7.125000 0.000000 0.000000 82.855700 -18.330800 24.625500 -27.978500 39.096400 -10.110100 0.000000 0.000000 -6.482400 7.125000 0.000000 0.000000 
45.217000 16.824500 4.385300 0.972500 -24.974900 -4.080500 -11.599100 13.070500 3.190000 7.851700 16.009100 52.026900 -0.056200 4.251400 -0.849600 0.018300 0.874100 2.402600 24.369400 -17.989400 -0.855500 -0.169500 -2.652600 7.313100 -0.462000 8.880400 -12.740500 -2.041200 -8.951500 25.643600 2.959800 -1.624500 -0.483400 3.857700 -0.758000 -3.804100 -0.456200 -4.182100 17.376900 -1.120000 -1.852600 9.407900 -87.838800 8.678100 48.970800 19.639600 -30.205700 -5.348900 0.000000 0.000000 -0.972900 -7.125000 0.000000 0.000000 82.792000 -17.971500 25.216000 -28.079300 39.189100 -10.173800 0.000000 0.000000 -6.507500 7.125000 0.000000 0.000000 
